<?xml version="1.0" standalone="no"?><!DOCTYPE svg PUBLIC "-//W3C//DTD SVG 1.1//EN" "http://www.w3.org/Graphics/SVG/1.1/DTD/svg11.dtd"><svg t="1643359990824" class="icon" viewBox="0 0 1024 1024" version="1.1" xmlns="http://www.w3.org/2000/svg" p-id="13248" xmlns:xlink="http://www.w3.org/1999/xlink" width="48" height="48"><defs><style type="text/css"></style></defs><path d="M513.028 513.017m-448.112 0a448.112 448.112 0 1 0 896.224 0 448.112 448.112 0 1 0-896.224 0Z" fill="#77B3D4" p-id="13249"></path><path d="M681.07 821.095c0 23.202-18.809 42.01-42.01 42.01H386.996c-23.202 0-42.011-18.809-42.011-42.01v-560.14c0-23.202 18.809-42.011 42.011-42.011h252.063c23.202 0 42.01 18.809 42.01 42.011v560.14z" fill="#231F20" p-id="13250"></path><path d="M681.07 793.088c0 23.202-18.809 42.01-42.01 42.01H386.996c-23.202 0-42.011-18.809-42.011-42.01v-560.14c0-23.202 18.809-42.011 42.011-42.011h252.063c23.202 0 42.01 18.809 42.01 42.011v560.14z" fill="#4F5D73" p-id="13251"></path><path d="M513.028 541.024m-70.018 0a70.018 70.018 0 1 0 140.036 0 70.018 70.018 0 1 0-140.036 0Z" fill="#231F20" p-id="13252"></path><path d="M513.028 358.979m-70.018 0a70.018 70.018 0 1 0 140.036 0 70.018 70.018 0 1 0-140.036 0Z" fill="#231F20" p-id="13253"></path><path d="M513.028 723.07m-70.018 0a70.018 70.018 0 1 0 140.036 0 70.018 70.018 0 1 0-140.036 0Z" fill="#231F20" p-id="13254"></path><path d="M513.028 513.017m-70.018 0a70.018 70.018 0 1 0 140.036 0 70.018 70.018 0 1 0-140.036 0Z" fill="#F5CF87" p-id="13255"></path><path d="M513.028 330.972m-70.018 0a70.018 70.018 0 1 0 140.036 0 70.018 70.018 0 1 0-140.036 0Z" fill="#C75C5C" p-id="13256"></path><path d="M513.028 695.063m-70.018 0a70.018 70.018 0 1 0 140.036 0 70.018 70.018 0 1 0-140.036 0Z" fill="#76C2AF" p-id="13257"></path></svg>