<?xml version="1.0" standalone="no"?><!DOCTYPE svg PUBLIC "-//W3C//DTD SVG 1.1//EN" "http://www.w3.org/Graphics/SVG/1.1/DTD/svg11.dtd"><svg t="1643374422304" class="icon" viewBox="0 0 1761 1024" version="1.1" xmlns="http://www.w3.org/2000/svg" p-id="26667" xmlns:xlink="http://www.w3.org/1999/xlink" width="82.546875" height="48"><defs><style type="text/css"></style></defs><path d="M620.62592 72.33536l66.7648 77.66016a330.87488 330.87488 0 0 0-115.42528 251.82208c0 182.8864 147.456 331.07968 329.19552 331.07968 181.73952 0 329.1136-148.15232 329.1136-331.07968a330.9568 330.9568 0 0 0-99.69664-237.44512l-8.8064-8.27392 68.89472-75.776a433.3568 433.3568 0 0 1 142.00832 321.49504c0 239.37024-193.08544 433.47968-431.5136 433.47968-238.3872 0-431.59552-194.1504-431.59552-433.47968 0-123.78112 51.97824-239.16544 141.02528-320.55296l10.0352-8.92928z" fill="#5AC2EE" p-id="26668"></path><path d="M886.53824 176.98816a51.2 51.2 0 1 1 0 102.4 109.73184 109.73184 0 1 0 109.44512 116.69504l0.2048-6.9632a51.2 51.2 0 1 1 102.4 0 212.09088 212.09088 0 1 1-212.04992-212.13184z" fill="#5AC2EE" p-id="26669"></path><path d="M886.49728 30.72c-206.97088 0-409.1904 84.21376-599.2448 223.72352a1628.81536 1628.81536 0 0 0-218.07104 192.75776l-19.49696 21.34016c-2.99008 3.35872-5.3248 6.02112-6.92224 7.9872a51.2 51.2 0 0 0-0.8192 64.96256l6.88128 8.35584c2.94912 3.4816 6.5536 7.74144 10.81344 12.61568 13.96736 16.01536 30.22848 33.792 48.66048 52.92032a1653.51424 1653.51424 0 0 0 177.9712 159.70304c190.13632 146.96448 392.68352 235.76576 600.22784 235.76576 207.2576 0 409.6-86.50752 599.69536-229.7856a1640.6528 1640.6528 0 0 0 218.07104-197.75488l8.6016-9.58464c8.56064-9.54368 14.49984-16.50688 17.77664-20.48a51.2 51.2 0 0 0 0-64.96256l-10.07616-11.79648-7.65952-8.68352c-13.96736-15.60576-30.22848-32.9728-48.70144-51.6096a1640.6528 1640.6528 0 0 0-178.01216-155.72992C1296.13824 117.22752 1093.75488 30.72 886.49728 30.72z m0 102.4c181.53472 0 364.17536 78.06976 538.09152 209.1008a1539.11296 1539.11296 0 0 1 166.87104 145.98144l10.0352 10.24 9.54368 9.95328 11.59168 12.36992-2.58048 2.78528a1539.11296 1539.11296 0 0 1-195.46112 175.7184c-173.91616 131.072-356.5568 209.18272-538.09152 209.18272-181.248 0-363.76576-80.03584-537.6-214.38464a1551.9744 1551.9744 0 0 1-166.912-149.79072l-10.0352-10.52672-9.58464-10.19904-12.04224-13.18912 2.12992-2.21184a1527.23456 1527.23456 0 0 1 195.3792-171.2128c174.03904-127.71328 356.84352-203.81696 538.624-203.81696z" fill="#5AC2EE" p-id="26670"></path></svg>