<?xml version="1.0" standalone="no"?><!DOCTYPE svg PUBLIC "-//W3C//DTD SVG 1.1//EN" "http://www.w3.org/Graphics/SVG/1.1/DTD/svg11.dtd"><svg t="1643360406647" class="icon" viewBox="0 0 1024 1024" version="1.1" xmlns="http://www.w3.org/2000/svg" p-id="5782" xmlns:xlink="http://www.w3.org/1999/xlink" width="48" height="48"><defs><style type="text/css"></style></defs><path d="M519.900554 468.468185c-70.478769 0-127.814892-57.340062-127.814892-127.818831 0-70.482708 57.340062-127.822769 127.814892-127.822769 70.482708 0 127.822769 57.340062 127.822769 127.822769 0 70.478769-57.344 127.818831-127.822769 127.818831z m0-157.176123c-16.187077 0-29.353354 13.170215-29.353354 29.36123s13.166277 29.357292 29.353354 29.357293 29.361231-13.170215 29.361231-29.357293-13.174154-29.361231-29.361231-29.36123z" fill="#594BC8" p-id="5783"></path><path d="M511.996062 802.945969c-70.478769 0-127.814892-57.340062-127.814893-127.814892 0-70.482708 57.340062-127.822769 127.814893-127.822769 70.482708 0 127.822769 57.344 127.822769 127.822769 0 70.474831-57.340062 127.814892-127.822769 127.814892z m0-157.172184c-16.187077 0-29.353354 13.170215-29.353354 29.357292 0 16.183138 13.166277 29.353354 29.353354 29.353354s29.361231-13.170215 29.36123-29.353354c0-16.187077-13.174154-29.357292-29.36123-29.357292zM764.435692 379.573169a49.073231 49.073231 0 0 1-34.812061-14.418707c-19.227569-19.227569-19.227569-50.396554 0-69.624124l85.791507-85.791507h-73.152984c-27.1872 0-49.230769-22.039631-49.230769-49.230769 0-27.1872 22.043569-49.230769 49.230769-49.23077h116.594215c57.769354 0 77.351385 32.208738 83.085785 46.05637 5.7344 13.851569 14.666831 50.467446-26.186831 91.317169l-116.503631 116.503631a49.096862 49.096862 0 0 1-34.816 14.418707z" fill="#B0A7F7" p-id="5784"></path><path d="M764.435692 642.036185a49.073231 49.073231 0 0 1-34.812061-14.418708c-19.227569-19.227569-19.227569-50.396554 0-69.624123l85.791507-85.787569h-73.152984c-27.1872 0-49.230769-22.039631-49.230769-49.23077 0-27.1872 22.043569-49.230769 49.230769-49.230769h116.594215c57.773292 0 77.351385 32.208738 83.085785 46.056369s14.666831 50.467446-26.186831 91.313231l-116.503631 116.503631a49.112615 49.112615 0 0 1-34.816 14.418708z" fill="#B0A7F7" p-id="5785"></path><path d="M727.0912 933.998277a49.092923 49.092923 0 0 1-34.812062-14.418708c-19.227569-19.227569-19.227569-50.400492 0-69.624123l123.139939-123.132061h-73.156923c-27.1872 0-49.230769-22.043569-49.230769-49.23077s22.043569-49.230769 49.230769-49.230769h116.594215c57.769354 0 77.351385 32.212677 83.085785 46.056369 5.7344 13.851569 14.666831 50.467446-26.186831 91.321108l-153.844185 153.840246a49.1008 49.1008 0 0 1-34.819938 14.418708zM274.459569 379.573169c-12.599138 0-25.198277-4.804923-34.808123-14.418707L123.139938 248.650831c-40.849723-40.849723-31.917292-77.4656-26.182892-91.313231 5.738338-13.847631 25.316431-46.056369 83.081846-46.056369h116.590277c27.1872 0 49.230769 22.043569 49.230769 49.230769 0 27.191138-22.043569 49.230769-49.230769 49.230769H223.476185l85.791507 85.791508c19.227569 19.223631 19.227569 50.396554 0 69.620185a49.061415 49.061415 0 0 1-34.808123 14.418707z" fill="#B0A7F7" p-id="5786"></path><path d="M274.459569 642.036185a49.073231 49.073231 0 0 1-34.808123-14.418708l-116.511508-116.503631c-40.849723-40.849723-31.917292-77.4656-26.182892-91.313231 5.738338-13.847631 25.312492-46.056369 83.081846-46.056369h116.590277c27.1872 0 49.230769 22.043569 49.230769 49.230769 0 27.191138-22.043569 49.230769-49.230769 49.23077H223.476185l85.791507 85.787569c19.227569 19.223631 19.227569 50.396554 0 69.624123a49.073231 49.073231 0 0 1-34.808123 14.418708z" fill="#B0A7F7" p-id="5787"></path><path d="M329.601969 951.808a49.092923 49.092923 0 0 1-34.812061-14.418708l-171.653908-171.649969c-40.849723-40.849723-31.917292-77.469538-26.178954-91.317169 5.738338-13.851569 25.316431-46.056369 83.081846-46.056369h116.590277c27.191138 0 49.230769 22.043569 49.230769 49.230769s-22.039631 49.230769-49.230769 49.230769H223.472246l140.941785 140.937846c19.223631 19.227569 19.223631 50.396554 0 69.624123a49.092923 49.092923 0 0 1-34.812062 14.418708z" fill="#B0A7F7" p-id="5788"></path><path d="M620.1344 1000.369231h-203.626338c-89.525169 0-162.359138-72.833969-162.359139-162.359139V178.112985C254.152862 88.587815 326.982892 15.753846 416.508062 15.753846h203.626338c89.521231 0 162.359138 72.833969 162.359138 162.359139v659.901046c0 89.521231-72.833969 162.3552-162.359138 162.3552zM416.508062 114.215385c-35.233477 0-63.8976 28.664123-63.8976 63.8976v659.901046c0 35.229538 28.664123 63.8976 63.8976 63.8976h203.626338c35.229538 0 63.8976-28.664123 63.8976-63.8976V178.112985c0-35.233477-28.664123-63.8976-63.8976-63.8976h-203.626338z" fill="#594BC8" p-id="5789"></path><path d="M515.938462 338.707692m-68.923077 0a68.923077 68.923077 0 1 0 137.846153 0 68.923077 68.923077 0 1 0-137.846153 0Z" fill="#594BC8" p-id="5790"></path><path d="M515.938462 673.476923m-68.923077 0a68.923077 68.923077 0 1 0 137.846153 0 68.923077 68.923077 0 1 0-137.846153 0Z" fill="#B0A7F7" p-id="5791"></path></svg>